<svg xmlns="http://www.w3.org/2000/svg" xmlns:xlink="http://www.w3.org/1999/xlink" width="412" zoomAndPan="magnify" viewBox="0 0 309 237" height="316" preserveAspectRatio="xMidYMid meet" version="1.0"><defs><g/><linearGradient x1="0" gradientTransform="matrix(0.75, 0, 0, 0.75, 0, 0.00001)" y1="158" x2="411.999983" gradientUnits="userSpaceOnUse" y2="158" id="bbd829f42c"><stop stop-opacity="1" stop-color="rgb(0%, 0%, 0%)" offset="0"/><stop stop-opacity="1" stop-color="rgb(0.0808716%, 0.0778198%, 0.312805%)" offset="0.00390625"/><stop stop-opacity="1" stop-color="rgb(0.161743%, 0.15564%, 0.627136%)" offset="0.0078125"/><stop stop-opacity="1" stop-color="rgb(0.242615%, 0.233459%, 0.941467%)" offset="0.0117188"/><stop stop-opacity="1" stop-color="rgb(0.323486%, 0.311279%, 1.255798%)" offset="0.015625"/><stop stop-opacity="1" stop-color="rgb(0.404358%, 0.389099%, 1.568604%)" offset="0.0195312"/><stop stop-opacity="1" stop-color="rgb(0.486755%, 0.468445%, 1.882935%)" offset="0.0234375"/><stop stop-opacity="1" stop-color="rgb(0.567627%, 0.546265%, 2.197266%)" offset="0.0273438"/><stop stop-opacity="1" stop-color="rgb(0.648499%, 0.624084%, 2.511597%)" offset="0.03125"/><stop stop-opacity="1" stop-color="rgb(0.72937%, 0.701904%, 2.825928%)" offset="0.0351562"/><stop stop-opacity="1" stop-color="rgb(0.811768%, 0.779724%, 3.140259%)" offset="0.0390625"/><stop stop-opacity="1" stop-color="rgb(0.892639%, 0.857544%, 3.453064%)" offset="0.0429688"/><stop stop-opacity="1" stop-color="rgb(0.973511%, 0.93689%, 3.767395%)" offset="0.046875"/><stop stop-opacity="1" stop-color="rgb(1.054382%, 1.014709%, 4.081726%)" offset="0.0507812"/><stop stop-opacity="1" stop-color="rgb(1.13678%, 1.092529%, 4.396057%)" offset="0.0546875"/><stop stop-opacity="1" stop-color="rgb(1.217651%, 1.170349%, 4.710388%)" offset="0.0585938"/><stop stop-opacity="1" stop-color="rgb(1.298523%, 1.249695%, 5.024719%)" offset="0.0625"/><stop stop-opacity="1" stop-color="rgb(1.379395%, 1.327515%, 5.337524%)" offset="0.0664062"/><stop stop-opacity="1" stop-color="rgb(1.461792%, 1.405334%, 5.651855%)" offset="0.0703125"/><stop stop-opacity="1" stop-color="rgb(1.542664%, 1.483154%, 5.966187%)" offset="0.0742188"/><stop stop-opacity="1" stop-color="rgb(1.623535%, 1.560974%, 6.280518%)" offset="0.078125"/><stop stop-opacity="1" stop-color="rgb(1.704407%, 1.638794%, 6.594849%)" offset="0.0820312"/><stop stop-opacity="1" stop-color="rgb(1.786804%, 1.71814%, 6.90918%)" offset="0.0859375"/><stop stop-opacity="1" stop-color="rgb(1.867676%, 1.795959%, 7.221985%)" offset="0.0898438"/><stop stop-opacity="1" stop-color="rgb(1.948547%, 1.873779%, 7.536316%)" offset="0.09375"/><stop stop-opacity="1" stop-color="rgb(2.029419%, 1.951599%, 7.850647%)" offset="0.0976562"/><stop stop-opacity="1" stop-color="rgb(2.111816%, 2.030945%, 8.164978%)" offset="0.101562"/><stop stop-opacity="1" stop-color="rgb(2.192688%, 2.108765%, 8.479309%)" offset="0.105469"/><stop stop-opacity="1" stop-color="rgb(2.27356%, 2.186584%, 8.79364%)" offset="0.109375"/><stop stop-opacity="1" stop-color="rgb(2.354431%, 2.264404%, 9.106445%)" offset="0.113281"/><stop stop-opacity="1" stop-color="rgb(2.436829%, 2.342224%, 9.420776%)" offset="0.117188"/><stop stop-opacity="1" stop-color="rgb(2.5177%, 2.420044%, 9.735107%)" offset="0.121094"/><stop stop-opacity="1" stop-color="rgb(2.598572%, 2.49939%, 10.049438%)" offset="0.125"/><stop stop-opacity="1" stop-color="rgb(2.679443%, 2.577209%, 10.36377%)" offset="0.128906"/><stop stop-opacity="1" stop-color="rgb(2.761841%, 2.655029%, 10.678101%)" offset="0.132812"/><stop stop-opacity="1" stop-color="rgb(2.842712%, 2.732849%, 10.990906%)" offset="0.136719"/><stop stop-opacity="1" stop-color="rgb(2.923584%, 2.812195%, 11.305237%)" offset="0.140625"/><stop stop-opacity="1" stop-color="rgb(3.004456%, 2.890015%, 11.619568%)" offset="0.144531"/><stop stop-opacity="1" stop-color="rgb(3.086853%, 2.967834%, 11.933899%)" offset="0.148438"/><stop stop-opacity="1" stop-color="rgb(3.167725%, 3.045654%, 12.246704%)" offset="0.152344"/><stop stop-opacity="1" stop-color="rgb(3.248596%, 3.123474%, 12.561035%)" offset="0.15625"/><stop stop-opacity="1" stop-color="rgb(3.329468%, 3.201294%, 12.875366%)" offset="0.160156"/><stop stop-opacity="1" stop-color="rgb(3.411865%, 3.28064%, 13.189697%)" offset="0.164062"/><stop stop-opacity="1" stop-color="rgb(3.492737%, 3.358459%, 13.504028%)" offset="0.167969"/><stop stop-opacity="1" stop-color="rgb(3.573608%, 3.436279%, 13.818359%)" offset="0.171875"/><stop stop-opacity="1" stop-color="rgb(3.65448%, 3.514099%, 14.131165%)" offset="0.175781"/><stop stop-opacity="1" stop-color="rgb(3.736877%, 3.593445%, 14.445496%)" offset="0.179688"/><stop stop-opacity="1" stop-color="rgb(3.817749%, 3.671265%, 14.759827%)" offset="0.183594"/><stop stop-opacity="1" stop-color="rgb(3.898621%, 3.749084%, 15.074158%)" offset="0.1875"/><stop stop-opacity="1" stop-color="rgb(3.979492%, 3.826904%, 15.388489%)" offset="0.191406"/><stop stop-opacity="1" stop-color="rgb(4.06189%, 3.904724%, 15.70282%)" offset="0.195312"/><stop stop-opacity="1" stop-color="rgb(4.142761%, 3.982544%, 16.015625%)" offset="0.199219"/><stop stop-opacity="1" stop-color="rgb(4.223633%, 4.06189%, 16.329956%)" offset="0.203125"/><stop stop-opacity="1" stop-color="rgb(4.304504%, 4.139709%, 16.644287%)" offset="0.207031"/><stop stop-opacity="1" stop-color="rgb(4.386902%, 4.217529%, 16.958618%)" offset="0.210938"/><stop stop-opacity="1" stop-color="rgb(4.467773%, 4.295349%, 17.272949%)" offset="0.214844"/><stop stop-opacity="1" stop-color="rgb(4.548645%, 4.374695%, 17.58728%)" offset="0.21875"/><stop stop-opacity="1" stop-color="rgb(4.629517%, 4.452515%, 17.900085%)" offset="0.222656"/><stop stop-opacity="1" stop-color="rgb(4.711914%, 4.530334%, 18.214417%)" offset="0.226562"/><stop stop-opacity="1" stop-color="rgb(4.792786%, 4.608154%, 18.528748%)" offset="0.230469"/><stop stop-opacity="1" stop-color="rgb(4.873657%, 4.685974%, 18.843079%)" offset="0.234375"/><stop stop-opacity="1" stop-color="rgb(4.954529%, 4.763794%, 19.15741%)" offset="0.238281"/><stop stop-opacity="1" stop-color="rgb(5.036926%, 4.84314%, 19.471741%)" offset="0.242188"/><stop stop-opacity="1" stop-color="rgb(5.117798%, 4.920959%, 19.784546%)" offset="0.246094"/><stop stop-opacity="1" stop-color="rgb(5.198669%, 4.998779%, 20.098877%)" offset="0.25"/><stop stop-opacity="1" stop-color="rgb(5.279541%, 5.076599%, 20.413208%)" offset="0.253906"/><stop stop-opacity="1" stop-color="rgb(5.361938%, 5.155945%, 20.727539%)" offset="0.257812"/><stop stop-opacity="1" stop-color="rgb(5.44281%, 5.233765%, 21.04187%)" offset="0.261719"/><stop stop-opacity="1" stop-color="rgb(5.523682%, 5.311584%, 21.356201%)" offset="0.265625"/><stop stop-opacity="1" stop-color="rgb(5.604553%, 5.389404%, 21.669006%)" offset="0.269531"/><stop stop-opacity="1" stop-color="rgb(5.686951%, 5.467224%, 21.983337%)" offset="0.273438"/><stop stop-opacity="1" stop-color="rgb(5.767822%, 5.545044%, 22.297668%)" offset="0.277344"/><stop stop-opacity="1" stop-color="rgb(5.848694%, 5.62439%, 22.612%)" offset="0.28125"/><stop stop-opacity="1" stop-color="rgb(5.929565%, 5.702209%, 22.924805%)" offset="0.285156"/><stop stop-opacity="1" stop-color="rgb(6.011963%, 5.780029%, 23.239136%)" offset="0.289062"/><stop stop-opacity="1" stop-color="rgb(6.092834%, 5.857849%, 23.553467%)" offset="0.292969"/><stop stop-opacity="1" stop-color="rgb(6.173706%, 5.937195%, 23.867798%)" offset="0.296875"/><stop stop-opacity="1" stop-color="rgb(6.254578%, 6.015015%, 24.182129%)" offset="0.300781"/><stop stop-opacity="1" stop-color="rgb(6.336975%, 6.092834%, 24.49646%)" offset="0.304688"/><stop stop-opacity="1" stop-color="rgb(6.417847%, 6.170654%, 24.809265%)" offset="0.308594"/><stop stop-opacity="1" stop-color="rgb(6.498718%, 6.248474%, 25.123596%)" offset="0.3125"/><stop stop-opacity="1" stop-color="rgb(6.57959%, 6.326294%, 25.437927%)" offset="0.316406"/><stop stop-opacity="1" stop-color="rgb(6.661987%, 6.40564%, 25.752258%)" offset="0.320312"/><stop stop-opacity="1" stop-color="rgb(6.742859%, 6.483459%, 26.066589%)" offset="0.324219"/><stop stop-opacity="1" stop-color="rgb(6.82373%, 6.561279%, 26.38092%)" offset="0.328125"/><stop stop-opacity="1" stop-color="rgb(6.904602%, 6.639099%, 26.693726%)" offset="0.332031"/><stop stop-opacity="1" stop-color="rgb(6.987%, 6.718445%, 27.008057%)" offset="0.335938"/><stop stop-opacity="1" stop-color="rgb(7.067871%, 6.796265%, 27.322388%)" offset="0.339844"/><stop stop-opacity="1" stop-color="rgb(7.148743%, 6.874084%, 27.636719%)" offset="0.34375"/><stop stop-opacity="1" stop-color="rgb(7.229614%, 6.951904%, 27.95105%)" offset="0.347656"/><stop stop-opacity="1" stop-color="rgb(7.312012%, 7.029724%, 28.265381%)" offset="0.351562"/><stop stop-opacity="1" stop-color="rgb(7.392883%, 7.107544%, 28.578186%)" offset="0.355469"/><stop stop-opacity="1" stop-color="rgb(7.473755%, 7.18689%, 28.892517%)" offset="0.359375"/><stop stop-opacity="1" stop-color="rgb(7.554626%, 7.264709%, 29.206848%)" offset="0.363281"/><stop stop-opacity="1" stop-color="rgb(7.637024%, 7.342529%, 29.521179%)" offset="0.367188"/><stop stop-opacity="1" stop-color="rgb(7.717896%, 7.420349%, 29.83551%)" offset="0.371094"/><stop stop-opacity="1" stop-color="rgb(7.798767%, 7.499695%, 30.149841%)" offset="0.375"/><stop stop-opacity="1" stop-color="rgb(7.879639%, 7.577515%, 30.462646%)" offset="0.378906"/><stop stop-opacity="1" stop-color="rgb(7.962036%, 7.655334%, 30.776978%)" offset="0.382812"/><stop stop-opacity="1" stop-color="rgb(8.042908%, 7.733154%, 31.091309%)" offset="0.386719"/><stop stop-opacity="1" stop-color="rgb(8.123779%, 7.810974%, 31.40564%)" offset="0.390625"/><stop stop-opacity="1" stop-color="rgb(8.204651%, 7.888794%, 31.719971%)" offset="0.394531"/><stop stop-opacity="1" stop-color="rgb(8.287048%, 7.96814%, 32.034302%)" offset="0.398438"/><stop stop-opacity="1" stop-color="rgb(8.36792%, 8.045959%, 32.347107%)" offset="0.402344"/><stop stop-opacity="1" stop-color="rgb(8.448792%, 8.123779%, 32.661438%)" offset="0.40625"/><stop stop-opacity="1" stop-color="rgb(8.529663%, 8.201599%, 32.975769%)" offset="0.410156"/><stop stop-opacity="1" stop-color="rgb(8.612061%, 8.280945%, 33.2901%)" offset="0.414062"/><stop stop-opacity="1" stop-color="rgb(8.692932%, 8.358765%, 33.602905%)" offset="0.417969"/><stop stop-opacity="1" stop-color="rgb(8.773804%, 8.436584%, 33.917236%)" offset="0.421875"/><stop stop-opacity="1" stop-color="rgb(8.854675%, 8.514404%, 34.231567%)" offset="0.425781"/><stop stop-opacity="1" stop-color="rgb(8.937073%, 8.592224%, 34.545898%)" offset="0.429688"/><stop stop-opacity="1" stop-color="rgb(9.017944%, 8.670044%, 34.860229%)" offset="0.433594"/><stop stop-opacity="1" stop-color="rgb(9.098816%, 8.74939%, 35.174561%)" offset="0.4375"/><stop stop-opacity="1" stop-color="rgb(9.179688%, 8.827209%, 35.487366%)" offset="0.441406"/><stop stop-opacity="1" stop-color="rgb(9.262085%, 8.905029%, 35.801697%)" offset="0.445312"/><stop stop-opacity="1" stop-color="rgb(9.342957%, 8.982849%, 36.116028%)" offset="0.449219"/><stop stop-opacity="1" stop-color="rgb(9.423828%, 9.062195%, 36.430359%)" offset="0.453125"/><stop stop-opacity="1" stop-color="rgb(9.5047%, 9.140015%, 36.74469%)" offset="0.457031"/><stop stop-opacity="1" stop-color="rgb(9.587097%, 9.217834%, 37.059021%)" offset="0.460938"/><stop stop-opacity="1" stop-color="rgb(9.667969%, 9.295654%, 37.371826%)" offset="0.464844"/><stop stop-opacity="1" stop-color="rgb(9.74884%, 9.373474%, 37.686157%)" offset="0.46875"/><stop stop-opacity="1" stop-color="rgb(9.829712%, 9.451294%, 38.000488%)" offset="0.472656"/><stop stop-opacity="1" stop-color="rgb(9.912109%, 9.53064%, 38.314819%)" offset="0.476562"/><stop stop-opacity="1" stop-color="rgb(9.992981%, 9.608459%, 38.62915%)" offset="0.480469"/><stop stop-opacity="1" stop-color="rgb(10.073853%, 9.686279%, 38.943481%)" offset="0.484375"/><stop stop-opacity="1" stop-color="rgb(10.154724%, 9.764099%, 39.256287%)" offset="0.488281"/><stop stop-opacity="1" stop-color="rgb(10.237122%, 9.843445%, 39.570618%)" offset="0.492188"/><stop stop-opacity="1" stop-color="rgb(10.317993%, 9.921265%, 39.884949%)" offset="0.496094"/><stop stop-opacity="1" stop-color="rgb(10.398865%, 9.999084%, 40.19928%)" offset="0.5"/><stop stop-opacity="1" stop-color="rgb(10.479736%, 10.076904%, 40.513611%)" offset="0.503906"/><stop stop-opacity="1" stop-color="rgb(10.562134%, 10.154724%, 40.827942%)" offset="0.507812"/><stop stop-opacity="1" stop-color="rgb(10.643005%, 10.232544%, 41.140747%)" offset="0.511719"/><stop stop-opacity="1" stop-color="rgb(10.723877%, 10.31189%, 41.455078%)" offset="0.515625"/><stop stop-opacity="1" stop-color="rgb(10.804749%, 10.389709%, 41.769409%)" offset="0.519531"/><stop stop-opacity="1" stop-color="rgb(10.887146%, 10.467529%, 42.08374%)" offset="0.523438"/><stop stop-opacity="1" stop-color="rgb(10.968018%, 10.545349%, 42.398071%)" offset="0.527344"/><stop stop-opacity="1" stop-color="rgb(11.048889%, 10.624695%, 42.712402%)" offset="0.53125"/><stop stop-opacity="1" stop-color="rgb(11.129761%, 10.702515%, 43.025208%)" offset="0.535156"/><stop stop-opacity="1" stop-color="rgb(11.212158%, 10.780334%, 43.339539%)" offset="0.539062"/><stop stop-opacity="1" stop-color="rgb(11.29303%, 10.858154%, 43.65387%)" offset="0.542969"/><stop stop-opacity="1" stop-color="rgb(11.373901%, 10.935974%, 43.968201%)" offset="0.546875"/><stop stop-opacity="1" stop-color="rgb(11.454773%, 11.013794%, 44.282532%)" offset="0.550781"/><stop stop-opacity="1" stop-color="rgb(11.53717%, 11.09314%, 44.596863%)" offset="0.554688"/><stop stop-opacity="1" stop-color="rgb(11.618042%, 11.170959%, 44.909668%)" offset="0.558594"/><stop stop-opacity="1" stop-color="rgb(11.698914%, 11.248779%, 45.223999%)" offset="0.5625"/><stop stop-opacity="1" stop-color="rgb(11.779785%, 11.326599%, 45.53833%)" offset="0.566406"/><stop stop-opacity="1" stop-color="rgb(11.862183%, 11.405945%, 45.852661%)" offset="0.570312"/><stop stop-opacity="1" stop-color="rgb(11.943054%, 11.483765%, 46.165466%)" offset="0.574219"/><stop stop-opacity="1" stop-color="rgb(12.023926%, 11.561584%, 46.479797%)" offset="0.578125"/><stop stop-opacity="1" stop-color="rgb(12.104797%, 11.639404%, 46.794128%)" offset="0.582031"/><stop stop-opacity="1" stop-color="rgb(12.187195%, 11.717224%, 47.108459%)" offset="0.585938"/><stop stop-opacity="1" stop-color="rgb(12.268066%, 11.795044%, 47.422791%)" offset="0.589844"/><stop stop-opacity="1" stop-color="rgb(12.348938%, 11.87439%, 47.737122%)" offset="0.59375"/><stop stop-opacity="1" stop-color="rgb(12.42981%, 11.952209%, 48.049927%)" offset="0.597656"/><stop stop-opacity="1" stop-color="rgb(12.512207%, 12.030029%, 48.364258%)" offset="0.601562"/><stop stop-opacity="1" stop-color="rgb(12.593079%, 12.107849%, 48.678589%)" offset="0.605469"/><stop stop-opacity="1" stop-color="rgb(12.67395%, 12.187195%, 48.99292%)" offset="0.609375"/><stop stop-opacity="1" stop-color="rgb(12.754822%, 12.265015%, 49.307251%)" offset="0.613281"/><stop stop-opacity="1" stop-color="rgb(12.837219%, 12.342834%, 49.621582%)" offset="0.617188"/><stop stop-opacity="1" stop-color="rgb(12.918091%, 12.420654%, 49.934387%)" offset="0.621094"/><stop stop-opacity="1" stop-color="rgb(12.998962%, 12.498474%, 50.248718%)" offset="0.625"/><stop stop-opacity="1" stop-color="rgb(13.079834%, 12.576294%, 50.563049%)" offset="0.628906"/><stop stop-opacity="1" stop-color="rgb(13.162231%, 12.65564%, 50.87738%)" offset="0.632812"/><stop stop-opacity="1" stop-color="rgb(13.243103%, 12.733459%, 51.191711%)" offset="0.636719"/><stop stop-opacity="1" stop-color="rgb(13.323975%, 12.811279%, 51.506042%)" offset="0.640625"/><stop stop-opacity="1" stop-color="rgb(13.404846%, 12.889099%, 51.818848%)" offset="0.644531"/><stop stop-opacity="1" stop-color="rgb(13.487244%, 12.968445%, 52.133179%)" offset="0.648438"/><stop stop-opacity="1" stop-color="rgb(13.568115%, 13.046265%, 52.44751%)" offset="0.652344"/><stop stop-opacity="1" stop-color="rgb(13.648987%, 13.124084%, 52.761841%)" offset="0.65625"/><stop stop-opacity="1" stop-color="rgb(13.729858%, 13.201904%, 53.076172%)" offset="0.660156"/><stop stop-opacity="1" stop-color="rgb(13.812256%, 13.279724%, 53.390503%)" offset="0.664062"/><stop stop-opacity="1" stop-color="rgb(13.893127%, 13.357544%, 53.703308%)" offset="0.667969"/><stop stop-opacity="1" stop-color="rgb(13.973999%, 13.43689%, 54.017639%)" offset="0.671875"/><stop stop-opacity="1" stop-color="rgb(14.054871%, 13.514709%, 54.33197%)" offset="0.675781"/><stop stop-opacity="1" stop-color="rgb(14.137268%, 13.592529%, 54.646301%)" offset="0.679688"/><stop stop-opacity="1" stop-color="rgb(14.21814%, 13.670349%, 54.960632%)" offset="0.683594"/><stop stop-opacity="1" stop-color="rgb(14.299011%, 13.749695%, 55.274963%)" offset="0.6875"/><stop stop-opacity="1" stop-color="rgb(14.379883%, 13.827515%, 55.587769%)" offset="0.691406"/><stop stop-opacity="1" stop-color="rgb(14.46228%, 13.905334%, 55.9021%)" offset="0.695312"/><stop stop-opacity="1" stop-color="rgb(14.543152%, 13.983154%, 56.216431%)" offset="0.699219"/><stop stop-opacity="1" stop-color="rgb(14.624023%, 14.060974%, 56.530762%)" offset="0.703125"/><stop stop-opacity="1" stop-color="rgb(14.704895%, 14.138794%, 56.843567%)" offset="0.707031"/><stop stop-opacity="1" stop-color="rgb(14.787292%, 14.21814%, 57.157898%)" offset="0.710938"/><stop stop-opacity="1" stop-color="rgb(14.868164%, 14.295959%, 57.472229%)" offset="0.714844"/><stop stop-opacity="1" stop-color="rgb(14.949036%, 14.373779%, 57.78656%)" offset="0.71875"/><stop stop-opacity="1" stop-color="rgb(15.029907%, 14.451599%, 58.100891%)" offset="0.722656"/><stop stop-opacity="1" stop-color="rgb(15.112305%, 14.530945%, 58.415222%)" offset="0.726562"/><stop stop-opacity="1" stop-color="rgb(15.193176%, 14.608765%, 58.728027%)" offset="0.730469"/><stop stop-opacity="1" stop-color="rgb(15.274048%, 14.686584%, 59.042358%)" offset="0.734375"/><stop stop-opacity="1" stop-color="rgb(15.354919%, 14.764404%, 59.356689%)" offset="0.738281"/><stop stop-opacity="1" stop-color="rgb(15.437317%, 14.842224%, 59.671021%)" offset="0.742188"/><stop stop-opacity="1" stop-color="rgb(15.518188%, 14.920044%, 59.985352%)" offset="0.746094"/><stop stop-opacity="1" stop-color="rgb(15.59906%, 14.99939%, 60.299683%)" offset="0.75"/><stop stop-opacity="1" stop-color="rgb(15.679932%, 15.077209%, 60.612488%)" offset="0.753906"/><stop stop-opacity="1" stop-color="rgb(15.762329%, 15.155029%, 60.926819%)" offset="0.757812"/><stop stop-opacity="1" stop-color="rgb(15.843201%, 15.232849%, 61.24115%)" offset="0.761719"/><stop stop-opacity="1" stop-color="rgb(15.924072%, 15.312195%, 61.555481%)" offset="0.765625"/><stop stop-opacity="1" stop-color="rgb(16.004944%, 15.390015%, 61.869812%)" offset="0.769531"/><stop stop-opacity="1" stop-color="rgb(16.087341%, 15.467834%, 62.184143%)" offset="0.773438"/><stop stop-opacity="1" stop-color="rgb(16.168213%, 15.545654%, 62.496948%)" offset="0.777344"/><stop stop-opacity="1" stop-color="rgb(16.249084%, 15.623474%, 62.811279%)" offset="0.78125"/><stop stop-opacity="1" stop-color="rgb(16.329956%, 15.701294%, 63.12561%)" offset="0.785156"/><stop stop-opacity="1" stop-color="rgb(16.412354%, 15.78064%, 63.439941%)" offset="0.789062"/><stop stop-opacity="1" stop-color="rgb(16.493225%, 15.858459%, 63.754272%)" offset="0.792969"/><stop stop-opacity="1" stop-color="rgb(16.574097%, 15.936279%, 64.068604%)" offset="0.796875"/><stop stop-opacity="1" stop-color="rgb(16.654968%, 16.014099%, 64.381409%)" offset="0.800781"/><stop stop-opacity="1" stop-color="rgb(16.737366%, 16.093445%, 64.69574%)" offset="0.804688"/><stop stop-opacity="1" stop-color="rgb(16.818237%, 16.171265%, 65.010071%)" offset="0.808594"/><stop stop-opacity="1" stop-color="rgb(16.899109%, 16.249084%, 65.324402%)" offset="0.8125"/><stop stop-opacity="1" stop-color="rgb(16.97998%, 16.326904%, 65.638733%)" offset="0.816406"/><stop stop-opacity="1" stop-color="rgb(17.062378%, 16.404724%, 65.953064%)" offset="0.820312"/><stop stop-opacity="1" stop-color="rgb(17.14325%, 16.482544%, 66.265869%)" offset="0.824219"/><stop stop-opacity="1" stop-color="rgb(17.224121%, 16.56189%, 66.5802%)" offset="0.828125"/><stop stop-opacity="1" stop-color="rgb(17.304993%, 16.639709%, 66.894531%)" offset="0.832031"/><stop stop-opacity="1" stop-color="rgb(17.38739%, 16.717529%, 67.208862%)" offset="0.835938"/><stop stop-opacity="1" stop-color="rgb(17.468262%, 16.795349%, 67.521667%)" offset="0.839844"/><stop stop-opacity="1" stop-color="rgb(17.549133%, 16.874695%, 67.835999%)" offset="0.84375"/><stop stop-opacity="1" stop-color="rgb(17.630005%, 16.952515%, 68.15033%)" offset="0.847656"/><stop stop-opacity="1" stop-color="rgb(17.712402%, 17.030334%, 68.464661%)" offset="0.851562"/><stop stop-opacity="1" stop-color="rgb(17.793274%, 17.108154%, 68.778992%)" offset="0.855469"/><stop stop-opacity="1" stop-color="rgb(17.874146%, 17.185974%, 69.093323%)" offset="0.859375"/><stop stop-opacity="1" stop-color="rgb(17.955017%, 17.263794%, 69.406128%)" offset="0.863281"/><stop stop-opacity="1" stop-color="rgb(18.037415%, 17.34314%, 69.720459%)" offset="0.867188"/><stop stop-opacity="1" stop-color="rgb(18.118286%, 17.420959%, 70.03479%)" offset="0.871094"/><stop stop-opacity="1" stop-color="rgb(18.199158%, 17.498779%, 70.349121%)" offset="0.875"/><stop stop-opacity="1" stop-color="rgb(18.280029%, 17.576599%, 70.663452%)" offset="0.878906"/><stop stop-opacity="1" stop-color="rgb(18.362427%, 17.655945%, 70.977783%)" offset="0.882812"/><stop stop-opacity="1" stop-color="rgb(18.443298%, 17.733765%, 71.290588%)" offset="0.886719"/><stop stop-opacity="1" stop-color="rgb(18.52417%, 17.811584%, 71.604919%)" offset="0.890625"/><stop stop-opacity="1" stop-color="rgb(18.605042%, 17.889404%, 71.91925%)" offset="0.894531"/><stop stop-opacity="1" stop-color="rgb(18.687439%, 17.967224%, 72.233582%)" offset="0.898438"/><stop stop-opacity="1" stop-color="rgb(18.768311%, 18.045044%, 72.547913%)" offset="0.902344"/><stop stop-opacity="1" stop-color="rgb(18.849182%, 18.12439%, 72.862244%)" offset="0.90625"/><stop stop-opacity="1" stop-color="rgb(18.930054%, 18.202209%, 73.175049%)" offset="0.910156"/><stop stop-opacity="1" stop-color="rgb(19.012451%, 18.280029%, 73.48938%)" offset="0.914062"/><stop stop-opacity="1" stop-color="rgb(19.093323%, 18.357849%, 73.803711%)" offset="0.917969"/><stop stop-opacity="1" stop-color="rgb(19.174194%, 18.437195%, 74.118042%)" offset="0.921875"/><stop stop-opacity="1" stop-color="rgb(19.255066%, 18.515015%, 74.432373%)" offset="0.925781"/><stop stop-opacity="1" stop-color="rgb(19.337463%, 18.592834%, 74.746704%)" offset="0.929688"/><stop stop-opacity="1" stop-color="rgb(19.418335%, 18.670654%, 75.059509%)" offset="0.933594"/><stop stop-opacity="1" stop-color="rgb(19.499207%, 18.748474%, 75.37384%)" offset="0.9375"/><stop stop-opacity="1" stop-color="rgb(19.580078%, 18.826294%, 75.688171%)" offset="0.941406"/><stop stop-opacity="1" stop-color="rgb(19.662476%, 18.90564%, 76.002502%)" offset="0.945312"/><stop stop-opacity="1" stop-color="rgb(19.743347%, 18.983459%, 76.316833%)" offset="0.949219"/><stop stop-opacity="1" stop-color="rgb(19.824219%, 19.061279%, 76.631165%)" offset="0.953125"/><stop stop-opacity="1" stop-color="rgb(19.90509%, 19.139099%, 76.94397%)" offset="0.957031"/><stop stop-opacity="1" stop-color="rgb(19.987488%, 19.218445%, 77.258301%)" offset="0.960938"/><stop stop-opacity="1" stop-color="rgb(20.068359%, 19.296265%, 77.572632%)" offset="0.964844"/><stop stop-opacity="1" stop-color="rgb(20.149231%, 19.374084%, 77.886963%)" offset="0.96875"/><stop stop-opacity="1" stop-color="rgb(20.230103%, 19.451904%, 78.199768%)" offset="0.972656"/><stop stop-opacity="1" stop-color="rgb(20.310974%, 19.529724%, 78.514099%)" offset="0.976562"/><stop stop-opacity="1" stop-color="rgb(20.391846%, 19.607544%, 78.82843%)" offset="0.980469"/><stop stop-opacity="1" stop-color="rgb(20.474243%, 19.68689%, 79.142761%)" offset="0.984375"/><stop stop-opacity="1" stop-color="rgb(20.555115%, 19.764709%, 79.457092%)" offset="0.988281"/><stop stop-opacity="1" stop-color="rgb(20.635986%, 19.842529%, 79.771423%)" offset="0.992188"/><stop stop-opacity="1" stop-color="rgb(20.716858%, 19.920349%, 80.084229%)" offset="0.996094"/><stop stop-opacity="1" stop-color="rgb(20.799255%, 19.999695%, 80.39856%)" offset="1"/></linearGradient><clipPath id="954f73f3f5"><path d="M 94 36.714844 L 221 36.714844 L 221 131.214844 L 94 131.214844 Z M 94 36.714844 " clip-rule="nonzero"/></clipPath></defs><rect x="-30.9" width="370.8" fill="#ffffff" y="-23.7" height="284.4" fill-opacity="1"/><rect x="-30.9" fill="url(#bbd829f42c)" width="370.8" y="-23.7" height="284.4"/><g fill="#737373" fill-opacity="1"><g transform="translate(51.489347, 156.102209)"><g><path d="M 9.238281 7.140625 C 12.484375 7.140625 15.28125 5.644531 17.925781 4.792969 C 17.828125 4.644531 17.777344 4.445312 17.777344 4.246094 C 17.777344 3.445312 18.277344 2.894531 19.027344 2.894531 C 19.824219 2.894531 20.324219 3.546875 20.273438 4.246094 C 21.421875 4.09375 22.769531 4.246094 23.871094 4.644531 L 24.417969 3.496094 C 22.320312 2.445312 21.421875 -0.347656 21.421875 -5.890625 L 21.421875 -10.636719 C 21.871094 -10.636719 22.273438 -10.585938 22.671875 -10.585938 C 30.160156 -10.585938 39.199219 -14.429688 39.199219 -23.121094 C 39.199219 -30.761719 31.507812 -35.953125 20.175781 -35.953125 C 9.585938 -35.953125 0.75 -31.011719 0.75 -25.066406 C 0.75 -22.621094 2.347656 -20.773438 4.84375 -20.773438 C 7.839844 -20.773438 10.1875 -23.21875 10.335938 -26.167969 C 9.988281 -25.46875 9.289062 -24.917969 8.488281 -24.917969 C 7.390625 -24.917969 6.890625 -25.867188 6.890625 -26.816406 C 6.890625 -30.3125 13.082031 -33.558594 19.824219 -33.558594 C 26.566406 -33.558594 33.257812 -30.5625 33.257812 -22.921875 C 33.257812 -16.929688 28.414062 -13.082031 22.671875 -13.082031 C 22.273438 -13.082031 21.871094 -13.082031 21.421875 -13.132812 L 21.421875 -22.472656 C 22.96875 -22.121094 24.46875 -21.324219 24.46875 -19.625 C 24.46875 -18.726562 23.871094 -17.976562 22.921875 -17.976562 C 22.570312 -17.976562 22.273438 -18.078125 21.972656 -18.226562 C 22.121094 -16.777344 23.570312 -15.980469 24.917969 -15.980469 C 26.964844 -15.980469 28.8125 -17.226562 28.8125 -19.425781 C 28.8125 -23.019531 24.769531 -24.46875 21.421875 -24.917969 L 21.421875 -26.015625 C 21.421875 -27.914062 21.472656 -30.761719 22.070312 -31.757812 L 21.921875 -31.859375 C 20.523438 -30.3125 16.328125 -28.511719 14.382812 -28.363281 L 14.382812 -28.214844 C 15.53125 -27.8125 16.078125 -26.964844 16.378906 -24.816406 C 12.785156 -24.167969 9.039062 -22.273438 9.039062 -18.375 C 9.039062 -14.28125 12.683594 -12.234375 16.578125 -11.285156 L 16.578125 -4.292969 C 16.578125 1.5 13.832031 5.195312 9.539062 5.195312 C 9.1875 5.195312 8.789062 5.195312 8.390625 5.042969 C 8.539062 4.695312 8.640625 4.34375 8.640625 3.996094 C 8.640625 2.945312 7.839844 2.195312 6.792969 2.195312 C 5.691406 2.195312 4.894531 2.996094 4.894531 4.144531 C 4.894531 5.59375 6.140625 7.140625 9.238281 7.140625 Z M 14.332031 -18.476562 C 14.332031 -20.125 15.28125 -21.371094 16.578125 -22.070312 L 16.578125 -14.632812 C 15.28125 -15.480469 14.332031 -16.730469 14.332031 -18.476562 Z M 14.332031 -18.476562 "/></g></g></g><g fill="#737373" fill-opacity="1"><g transform="translate(90.987578, 156.102209)"><g><path d="M 0.699219 -0.148438 L 0.699219 0 L 9.488281 0 L 9.488281 -0.148438 C 7.890625 -0.699219 7.339844 -2.148438 7.339844 -5.890625 L 7.339844 -22.570312 C 7.339844 -26.316406 7.890625 -27.765625 9.488281 -28.3125 L 9.488281 -28.464844 L 0.699219 -28.464844 L 0.699219 -28.3125 C 2.296875 -27.765625 2.847656 -26.316406 2.847656 -22.570312 L 2.847656 -5.890625 C 2.847656 -2.148438 2.296875 -0.699219 0.699219 -0.148438 Z M 0.699219 -0.148438 "/></g></g></g><g fill="#737373" fill-opacity="1"><g transform="translate(100.175456, 156.102209)"><g><path d="M 0.699219 -0.148438 L 0.699219 0 L 9.488281 0 L 9.488281 -0.148438 C 7.890625 -0.699219 7.339844 -2.148438 7.339844 -5.890625 L 7.339844 -17.976562 C 10.984375 -15.332031 13.832031 -9.136719 15.03125 -4.09375 C 15.53125 -1.996094 15.128906 -0.648438 14.03125 -0.148438 L 14.082031 0 L 22.570312 0 L 22.570312 -0.148438 C 21.472656 -0.648438 20.574219 -2.097656 19.773438 -4.644531 C 18.527344 -8.539062 16.378906 -12.785156 14.183594 -15.53125 C 17.878906 -15.378906 20.875 -18.125 20.875 -21.820312 C 20.875 -25.617188 17.675781 -28.464844 12.832031 -28.464844 L 0.699219 -28.464844 L 0.699219 -28.3125 C 2.296875 -27.765625 2.847656 -26.316406 2.847656 -22.570312 L 2.847656 -5.890625 C 2.847656 -2.148438 2.296875 -0.699219 0.699219 -0.148438 Z M 7.339844 -24.71875 L 7.339844 -25.71875 L 10.636719 -25.71875 C 13.734375 -25.71875 15.929688 -23.917969 15.929688 -21.523438 C 15.929688 -19.773438 14.730469 -18.226562 12.484375 -18.226562 C 9.835938 -18.226562 7.339844 -20.921875 7.339844 -24.71875 Z M 7.339844 -24.71875 "/></g></g></g><g fill="#737373" fill-opacity="1"><g transform="translate(121.247789, 156.102209)"><g><path d="M -1 -0.148438 L -1 0 L 6.542969 0 L 6.542969 -0.148438 C 5.09375 -0.75 4.84375 -2.347656 5.691406 -5.890625 L 5.941406 -6.992188 L 14.429688 -6.992188 L 14.730469 -5.890625 C 15.679688 -2.296875 15.28125 -0.699219 13.882812 -0.148438 L 13.882812 0 L 22.519531 0 L 22.519531 -0.148438 C 21.171875 -0.648438 20.472656 -1.898438 19.675781 -5.09375 L 13.382812 -28.464844 L 6.09375 -28.464844 L 6.09375 -28.3125 C 7.242188 -27.863281 7.339844 -26.117188 6.34375 -22.320312 L 1.847656 -5.09375 C 0.949219 -1.699219 0.300781 -0.597656 -1 -0.148438 Z M 6.691406 -9.988281 L 9.988281 -23.519531 L 13.683594 -9.988281 Z M 6.691406 -9.988281 "/></g></g></g><g fill="#737373" fill-opacity="1"><g transform="translate(141.770838, 156.102209)"><g><path d="M 5.394531 -0.148438 L 5.394531 0 L 14.183594 0 L 14.183594 -0.148438 C 12.582031 -0.699219 12.035156 -2.148438 12.035156 -5.890625 L 12.035156 -25.46875 L 13.78125 -25.46875 C 15.980469 -25.46875 17.878906 -23.917969 18.625 -21.472656 L 18.824219 -21.523438 L 17.925781 -28.863281 C 17.675781 -28.613281 16.828125 -28.464844 15.878906 -28.464844 L 3.644531 -28.464844 C 2.695312 -28.464844 1.847656 -28.613281 1.597656 -28.863281 L 0.699219 -21.523438 L 0.898438 -21.472656 C 1.648438 -23.917969 3.546875 -25.46875 5.742188 -25.46875 L 7.539062 -25.46875 L 7.539062 -5.890625 C 7.539062 -2.148438 6.992188 -0.699219 5.394531 -0.148438 Z M 5.394531 -0.148438 "/></g></g></g><g fill="#737373" fill-opacity="1"><g transform="translate(160.296503, 156.102209)"><g><path d="M 0.699219 -0.148438 L 0.699219 0 L 15.929688 0 C 16.527344 0 17.179688 0.25 17.378906 0.550781 L 18.726562 -6.792969 L 18.527344 -6.839844 C 17.578125 -4.496094 15.179688 -2.996094 12.382812 -2.996094 L 7.339844 -2.996094 L 7.339844 -16.828125 C 7.691406 -17.179688 8.140625 -17.378906 8.6875 -17.378906 C 10.488281 -17.378906 11.984375 -15.980469 13.683594 -15.980469 C 15.78125 -15.980469 17.425781 -18.125 17.878906 -20.023438 L 17.726562 -20.074219 C 17.328125 -19.425781 16.679688 -19.125 15.878906 -19.125 C 14.230469 -19.125 12.683594 -20.324219 10.886719 -20.324219 C 9.386719 -20.324219 8.140625 -19.476562 7.441406 -18.125 L 7.339844 -18.125 L 7.339844 -25.617188 L 12.632812 -25.617188 C 14.730469 -25.617188 15.679688 -24.917969 15.53125 -23.519531 L 15.679688 -23.46875 L 18.328125 -28.863281 C 18.027344 -28.5625 16.976562 -28.464844 16.277344 -28.464844 L 0.699219 -28.464844 L 0.699219 -28.3125 C 2.296875 -27.765625 2.847656 -26.316406 2.847656 -22.570312 L 2.847656 -5.890625 C 2.847656 -2.148438 2.296875 -0.699219 0.699219 -0.148438 Z M 0.699219 -0.148438 "/></g></g></g><g fill="#737373" fill-opacity="1"><g transform="translate(178.622429, 156.102209)"><g><path d="M 9.339844 0.449219 C 13.933594 0.449219 18.375 -2.246094 18.375 -7.839844 C 18.375 -16.578125 5.992188 -16.527344 5.992188 -22.519531 C 5.992188 -24.816406 7.691406 -25.96875 9.6875 -25.96875 C 12.335938 -25.96875 14.929688 -23.917969 15.980469 -21.074219 L 16.179688 -21.121094 L 15.929688 -28.015625 C 15.78125 -27.8125 15.582031 -27.765625 15.332031 -27.765625 C 14.230469 -27.765625 12.285156 -28.914062 9.339844 -28.914062 C 4.695312 -28.914062 1.546875 -26.015625 1.546875 -21.773438 C 1.546875 -13.28125 13.980469 -13.382812 13.980469 -6.890625 C 13.980469 -4.292969 12.085938 -2.894531 9.835938 -2.894531 C 6.941406 -2.894531 3.445312 -5.195312 2.894531 -10.085938 L 2.746094 -10.085938 L 0.898438 -3.347656 C 2.894531 -0.800781 6.140625 0.449219 9.339844 0.449219 Z M 9.339844 0.449219 "/></g></g></g><g fill="#737373" fill-opacity="1"><g transform="translate(196.69868, 156.102209)"><g/></g></g><g fill="#737373" fill-opacity="1"><g transform="translate(208.682901, 156.102209)"><g><path d="M 9.136719 7.140625 C 12.382812 7.140625 15.179688 5.644531 17.828125 4.792969 C 17.726562 4.644531 17.675781 4.445312 17.675781 4.246094 C 17.675781 3.445312 18.175781 2.894531 18.925781 2.894531 C 19.726562 2.894531 20.222656 3.546875 20.175781 4.246094 C 21.324219 4.09375 22.671875 4.246094 23.769531 4.644531 L 24.320312 3.496094 C 22.171875 2.445312 21.324219 -0.449219 21.324219 -5.890625 L 21.324219 -27.066406 C 21.324219 -28.964844 21.371094 -31.808594 21.972656 -32.808594 L 21.820312 -32.90625 C 20.425781 -31.359375 16.230469 -29.5625 14.28125 -29.414062 L 14.28125 -29.261719 C 15.878906 -28.664062 16.480469 -27.515625 16.480469 -20.773438 L 16.480469 -4.292969 C 16.480469 0.199219 14.679688 5.195312 9.4375 5.195312 C 9.089844 5.195312 8.6875 5.195312 8.289062 5.042969 C 8.4375 4.742188 8.539062 4.394531 8.539062 4.09375 C 8.539062 2.796875 7.589844 2.195312 6.640625 2.195312 C 5.691406 2.195312 4.792969 2.894531 4.792969 4.246094 C 4.792969 5.59375 6.042969 7.140625 9.136719 7.140625 Z M 0.75 -25.269531 C 0.75 -22.769531 2.296875 -20.875 4.792969 -20.875 C 7.390625 -20.875 10.039062 -22.871094 10.1875 -26.316406 C 9.886719 -25.46875 9.136719 -24.917969 8.390625 -24.917969 C 7.390625 -24.917969 6.691406 -25.816406 6.691406 -27.117188 C 6.691406 -32.058594 13.035156 -34.507812 18.125 -34.507812 C 24.96875 -34.507812 25.019531 -30.609375 22.921875 -30.609375 C 22.722656 -30.609375 22.519531 -30.660156 22.371094 -30.761719 C 23.320312 -28.761719 26.515625 -29.363281 27.117188 -30.8125 C 28.0625 -30.660156 29.164062 -30.5625 30.011719 -30.5625 C 34.957031 -30.5625 39.25 -33.65625 39.25 -36.753906 C 39.25 -37.800781 38.75 -38.550781 37.75 -38.550781 C 36.152344 -38.550781 35.65625 -36.703125 35.902344 -35.65625 C 36.054688 -36.105469 36.355469 -36.355469 36.652344 -36.355469 C 37.652344 -36.355469 37.75 -33.707031 33.558594 -33.707031 C 28.0625 -33.707031 23.71875 -36.503906 17.578125 -36.503906 C 5.394531 -36.503906 0.75 -30.0625 0.75 -25.269531 Z M 0.75 -25.269531 "/></g></g></g><g fill="#737373" fill-opacity="1"><g transform="translate(233.75001, 156.102209)"><g><path d="M 2.246094 -23.371094 L 8.039062 0 L 13.234375 0 L 19.027344 -23.371094 C 19.875 -26.714844 20.574219 -27.863281 21.871094 -28.3125 L 21.871094 -28.464844 L 14.382812 -28.464844 L 14.382812 -28.3125 C 15.828125 -27.765625 16.078125 -26.167969 15.230469 -22.570312 L 11.234375 -5.59375 L 7.242188 -22.570312 C 6.390625 -26.167969 6.640625 -27.765625 8.089844 -28.3125 L 8.089844 -28.464844 L -0.597656 -28.464844 L -0.597656 -28.3125 C 0.699219 -27.863281 1.398438 -26.714844 2.246094 -23.371094 Z M 2.246094 -23.371094 "/></g></g></g><g fill="#fff2f2" fill-opacity="1"><g transform="translate(77.478128, 173.889264)"><g><path d="M 1.578125 -10.546875 L 2.5625 -10.546875 L 9.046875 -2.03125 L 9.046875 -10.546875 L 10.171875 -10.546875 L 10.171875 0 L 9.203125 0 L 2.71875 -8.515625 L 2.71875 0 L 1.578125 0 Z M 1.578125 -10.546875 "/></g></g></g><g fill="#fff2f2" fill-opacity="1"><g transform="translate(90.747983, 173.889264)"><g><path d="M 6.328125 0.15625 C 5.578125 0.15625 4.875 0.015625 4.21875 -0.265625 C 3.5625 -0.546875 2.984375 -0.929688 2.484375 -1.421875 C 1.992188 -1.921875 1.609375 -2.5 1.328125 -3.15625 C 1.046875 -3.8125 0.90625 -4.519531 0.90625 -5.28125 C 0.90625 -6.03125 1.046875 -6.734375 1.328125 -7.390625 C 1.609375 -8.054688 1.992188 -8.632812 2.484375 -9.125 C 2.984375 -9.613281 3.5625 -10 4.21875 -10.28125 C 4.875 -10.5625 5.578125 -10.703125 6.328125 -10.703125 C 7.085938 -10.703125 7.796875 -10.5625 8.453125 -10.28125 C 9.109375 -10 9.679688 -9.613281 10.171875 -9.125 C 10.671875 -8.632812 11.0625 -8.054688 11.34375 -7.390625 C 11.625 -6.734375 11.765625 -6.03125 11.765625 -5.28125 C 11.765625 -4.519531 11.625 -3.8125 11.34375 -3.15625 C 11.0625 -2.5 10.671875 -1.921875 10.171875 -1.421875 C 9.679688 -0.929688 9.109375 -0.546875 8.453125 -0.265625 C 7.796875 0.015625 7.085938 0.15625 6.328125 0.15625 Z M 6.328125 -0.90625 C 6.929688 -0.90625 7.492188 -1.015625 8.015625 -1.234375 C 8.546875 -1.453125 9.003906 -1.757812 9.390625 -2.15625 C 9.773438 -2.550781 10.078125 -3.015625 10.296875 -3.546875 C 10.515625 -4.078125 10.625 -4.65625 10.625 -5.28125 C 10.625 -5.90625 10.515625 -6.484375 10.296875 -7.015625 C 10.078125 -7.546875 9.773438 -8.003906 9.390625 -8.390625 C 9.003906 -8.785156 8.546875 -9.09375 8.015625 -9.3125 C 7.492188 -9.539062 6.929688 -9.65625 6.328125 -9.65625 C 5.722656 -9.65625 5.160156 -9.539062 4.640625 -9.3125 C 4.117188 -9.09375 3.664062 -8.785156 3.28125 -8.390625 C 2.894531 -8.003906 2.585938 -7.546875 2.359375 -7.015625 C 2.140625 -6.484375 2.03125 -5.90625 2.03125 -5.28125 C 2.03125 -4.65625 2.140625 -4.078125 2.359375 -3.546875 C 2.585938 -3.015625 2.894531 -2.550781 3.28125 -2.15625 C 3.664062 -1.757812 4.117188 -1.453125 4.640625 -1.234375 C 5.160156 -1.015625 5.722656 -0.90625 6.328125 -0.90625 Z M 6.328125 -0.90625 "/></g></g></g><g fill="#fff2f2" fill-opacity="1"><g transform="translate(104.922529, 173.889264)"><g><path d="M 1.578125 -10.546875 L 2.5625 -10.546875 L 9.046875 -2.03125 L 9.046875 -10.546875 L 10.171875 -10.546875 L 10.171875 0 L 9.203125 0 L 2.71875 -8.515625 L 2.71875 0 L 1.578125 0 Z M 1.578125 -10.546875 "/></g></g></g><g fill="#fff2f2" fill-opacity="1"><g transform="translate(118.192383, 173.889264)"><g/></g></g><g fill="#fff2f2" fill-opacity="1"><g transform="translate(122.867671, 173.889264)"><g><path d="M 1.578125 -10.546875 L 8.75 -10.546875 L 8.75 -9.5 L 2.71875 -9.5 L 2.71875 -5.875 L 7.53125 -5.875 L 7.53125 -4.828125 L 2.71875 -4.828125 L 2.71875 0 L 1.578125 0 Z M 1.578125 -10.546875 "/></g></g></g><g fill="#fff2f2" fill-opacity="1"><g transform="translate(133.649622, 173.889264)"><g><path d="M 1.578125 -10.546875 L 5.8125 -10.546875 C 6.28125 -10.546875 6.710938 -10.46875 7.109375 -10.3125 C 7.503906 -10.15625 7.84375 -9.9375 8.125 -9.65625 C 8.414062 -9.375 8.640625 -9.035156 8.796875 -8.640625 C 8.960938 -8.253906 9.046875 -7.835938 9.046875 -7.390625 C 9.046875 -6.785156 8.929688 -6.289062 8.703125 -5.90625 C 8.472656 -5.519531 8.222656 -5.207031 7.953125 -4.96875 C 7.628906 -4.707031 7.265625 -4.507812 6.859375 -4.375 L 9.34375 0 L 8.0625 0 L 5.734375 -4.21875 L 2.71875 -4.21875 L 2.71875 0 L 1.578125 0 Z M 5.8125 -5.28125 C 6.445312 -5.28125 6.957031 -5.46875 7.34375 -5.84375 C 7.726562 -6.226562 7.921875 -6.742188 7.921875 -7.390625 C 7.921875 -8.035156 7.726562 -8.546875 7.34375 -8.921875 C 6.957031 -9.304688 6.445312 -9.5 5.8125 -9.5 L 2.71875 -9.5 L 2.71875 -5.28125 Z M 5.8125 -5.28125 "/></g></g></g><g fill="#fff2f2" fill-opacity="1"><g transform="translate(145.336265, 173.889264)"><g><path d="M 6.328125 0.15625 C 5.578125 0.15625 4.875 0.015625 4.21875 -0.265625 C 3.5625 -0.546875 2.984375 -0.929688 2.484375 -1.421875 C 1.992188 -1.921875 1.609375 -2.5 1.328125 -3.15625 C 1.046875 -3.8125 0.90625 -4.519531 0.90625 -5.28125 C 0.90625 -6.03125 1.046875 -6.734375 1.328125 -7.390625 C 1.609375 -8.054688 1.992188 -8.632812 2.484375 -9.125 C 2.984375 -9.613281 3.5625 -10 4.21875 -10.28125 C 4.875 -10.5625 5.578125 -10.703125 6.328125 -10.703125 C 7.085938 -10.703125 7.796875 -10.5625 8.453125 -10.28125 C 9.109375 -10 9.679688 -9.613281 10.171875 -9.125 C 10.671875 -8.632812 11.0625 -8.054688 11.34375 -7.390625 C 11.625 -6.734375 11.765625 -6.03125 11.765625 -5.28125 C 11.765625 -4.519531 11.625 -3.8125 11.34375 -3.15625 C 11.0625 -2.5 10.671875 -1.921875 10.171875 -1.421875 C 9.679688 -0.929688 9.109375 -0.546875 8.453125 -0.265625 C 7.796875 0.015625 7.085938 0.15625 6.328125 0.15625 Z M 6.328125 -0.90625 C 6.929688 -0.90625 7.492188 -1.015625 8.015625 -1.234375 C 8.546875 -1.453125 9.003906 -1.757812 9.390625 -2.15625 C 9.773438 -2.550781 10.078125 -3.015625 10.296875 -3.546875 C 10.515625 -4.078125 10.625 -4.65625 10.625 -5.28125 C 10.625 -5.90625 10.515625 -6.484375 10.296875 -7.015625 C 10.078125 -7.546875 9.773438 -8.003906 9.390625 -8.390625 C 9.003906 -8.785156 8.546875 -9.09375 8.015625 -9.3125 C 7.492188 -9.539062 6.929688 -9.65625 6.328125 -9.65625 C 5.722656 -9.65625 5.160156 -9.539062 4.640625 -9.3125 C 4.117188 -9.09375 3.664062 -8.785156 3.28125 -8.390625 C 2.894531 -8.003906 2.585938 -7.546875 2.359375 -7.015625 C 2.140625 -6.484375 2.03125 -5.90625 2.03125 -5.28125 C 2.03125 -4.65625 2.140625 -4.078125 2.359375 -3.546875 C 2.585938 -3.015625 2.894531 -2.550781 3.28125 -2.15625 C 3.664062 -1.757812 4.117188 -1.453125 4.640625 -1.234375 C 5.160156 -1.015625 5.722656 -0.90625 6.328125 -0.90625 Z M 6.328125 -0.90625 "/></g></g></g><g fill="#fff2f2" fill-opacity="1"><g transform="translate(159.510808, 173.889264)"><g><path d="M 1.578125 -10.546875 L 8.75 -10.546875 L 8.75 -9.5 L 2.71875 -9.5 L 2.71875 -5.875 L 7.53125 -5.875 L 7.53125 -4.828125 L 2.71875 -4.828125 L 2.71875 0 L 1.578125 0 Z M 1.578125 -10.546875 "/></g></g></g><g fill="#fff2f2" fill-opacity="1"><g transform="translate(170.292755, 173.889264)"><g><path d="M 1.578125 -10.546875 L 2.71875 -10.546875 L 2.71875 0 L 1.578125 0 Z M 1.578125 -10.546875 "/></g></g></g><g fill="#fff2f2" fill-opacity="1"><g transform="translate(176.098911, 173.889264)"><g><path d="M 3.625 -9.5 L 0.296875 -9.5 L 0.296875 -10.546875 L 8.0625 -10.546875 L 8.0625 -9.5 L 4.75 -9.5 L 4.75 0 L 3.625 0 Z M 3.625 -9.5 "/></g></g></g><g fill="#fff2f2" fill-opacity="1"><g transform="translate(185.976167, 173.889264)"><g><path d="M 4.671875 -10.546875 L 5.734375 -10.546875 L 10.109375 0 L 8.890625 0 L 7.6875 -2.9375 L 2.71875 -2.9375 L 1.5 0 L 0.296875 0 Z M 7.234375 -4 L 5.203125 -8.96875 L 3.171875 -4 Z M 7.234375 -4 "/></g></g></g><g fill="#fff2f2" fill-opacity="1"><g transform="translate(197.888979, 173.889264)"><g><path d="M 1.578125 -10.546875 L 2.71875 -10.546875 L 2.71875 -1.0625 L 8.140625 -1.0625 L 8.140625 0 L 1.578125 0 Z M 1.578125 -10.546875 "/></g></g></g><g fill="#fff2f2" fill-opacity="1"><g transform="translate(207.84163, 173.889264)"><g><path d="M 1.578125 -10.546875 L 5.65625 -10.546875 C 6.082031 -10.546875 6.476562 -10.472656 6.84375 -10.328125 C 7.207031 -10.191406 7.515625 -10 7.765625 -9.75 C 8.023438 -9.507812 8.226562 -9.222656 8.375 -8.890625 C 8.519531 -8.566406 8.59375 -8.21875 8.59375 -7.84375 C 8.59375 -7.414062 8.53125 -7.0625 8.40625 -6.78125 C 8.28125 -6.507812 8.140625 -6.289062 7.984375 -6.125 C 7.804688 -5.914062 7.609375 -5.757812 7.390625 -5.65625 C 7.703125 -5.5 7.988281 -5.300781 8.25 -5.0625 C 8.46875 -4.851562 8.664062 -4.582031 8.84375 -4.25 C 9.03125 -3.914062 9.125 -3.503906 9.125 -3.015625 C 9.125 -2.585938 9.046875 -2.1875 8.890625 -1.8125 C 8.734375 -1.445312 8.515625 -1.128906 8.234375 -0.859375 C 7.953125 -0.585938 7.613281 -0.375 7.21875 -0.21875 C 6.820312 -0.0703125 6.375 0 5.875 0 L 1.578125 0 Z M 5.875 -1.0625 C 6.519531 -1.0625 7.03125 -1.242188 7.40625 -1.609375 C 7.789062 -1.972656 7.984375 -2.441406 7.984375 -3.015625 C 7.984375 -3.296875 7.929688 -3.5625 7.828125 -3.8125 C 7.734375 -4.070312 7.59375 -4.296875 7.40625 -4.484375 C 7.226562 -4.679688 7.007812 -4.835938 6.75 -4.953125 C 6.488281 -5.066406 6.195312 -5.125 5.875 -5.125 L 2.71875 -5.125 L 2.71875 -1.0625 Z M 5.65625 -6.125 C 6.226562 -6.125 6.671875 -6.273438 6.984375 -6.578125 C 7.304688 -6.890625 7.46875 -7.3125 7.46875 -7.84375 C 7.46875 -8.332031 7.304688 -8.726562 6.984375 -9.03125 C 6.671875 -9.34375 6.226562 -9.5 5.65625 -9.5 L 2.71875 -9.5 L 2.71875 -6.125 Z M 5.65625 -6.125 "/></g></g></g><g fill="#fff2f2" fill-opacity="1"><g transform="translate(219.377493, 173.889264)"><g><path d="M 1.578125 -10.546875 L 8.828125 -10.546875 L 8.828125 -9.5 L 2.71875 -9.5 L 2.71875 -6.03125 L 7.609375 -6.03125 L 7.609375 -4.96875 L 2.71875 -4.96875 L 2.71875 -1.0625 L 8.96875 -1.0625 L 8.96875 0 L 1.578125 0 Z M 1.578125 -10.546875 "/></g></g></g><g clip-path="url(#954f73f3f5)"><path fill="#fff2f2" d="M 220.160156 52.660156 C 220.097656 54.207031 220.769531 57.355469 214.914062 67.128906 C 208.371094 78.050781 198.285156 87.121094 188.394531 94.464844 C 182.429688 98.898438 176.320312 102.496094 169.972656 105.675781 C 168.320312 105.136719 166.289062 104.429688 164.015625 103.542969 C 164 103.535156 163.988281 103.527344 163.972656 103.523438 C 165.546875 102.742188 167.25 101.867188 169.117188 100.871094 C 187.382812 91.152344 190.765625 85.292969 190.605469 85.132812 C 190.449219 84.976562 185.855469 90.324219 170.109375 99.492188 C 167.816406 100.824219 165.46875 102.039062 163.074219 103.140625 C 161.300781 102.410156 159.5625 101.609375 158.078125 100.855469 C 165.726562 97.539062 173.875 93.414062 180.550781 89 C 190.828125 82.207031 200.5 74.246094 208.175781 65.308594 C 215.183594 57.144531 218.0625 52.9375 218.503906 52.109375 C 219.199219 50.808594 220.316406 49.011719 220.164062 52.660156 Z M 215.503906 61.644531 C 215.28125 61.570312 213.734375 65.621094 208.210938 72.394531 C 202.699219 79.15625 197.75 83.21875 197.972656 83.441406 C 198.191406 83.660156 202.417969 80.660156 208.875 72.617188 C 214.679688 65.375 215.722656 61.71875 215.503906 61.644531 Z M 174.792969 66.832031 C 173.980469 67.050781 173.578125 66.0625 173.519531 65.253906 C 173.371094 63.339844 173.695312 62.191406 173.539062 61.171875 C 173.359375 60.015625 173.992188 58.140625 172.550781 58.761719 C 171.730469 59.113281 172.410156 60.023438 172.707031 60.980469 C 173.003906 61.9375 172.925781 65.164062 172.925781 65.84375 C 172.925781 67.019531 173.589844 67.710938 175.359375 68.347656 C 177.390625 69.074219 175.773438 73.835938 173.8125 74.382812 C 171.773438 74.949219 170.628906 73.542969 169.171875 73.792969 C 166.59375 74.234375 167.109375 76.738281 166.59375 77.550781 C 166.078125 78.359375 166.078125 78.359375 165.195312 79.242188 C 164.542969 79.894531 164.121094 80.414062 163.664062 80.824219 C 163.734375 80.886719 163.785156 80.992188 163.796875 81.171875 C 163.855469 81.945312 164.476562 82.539062 164.476562 83.3125 C 164.476562 84.085938 164.230469 84.359375 163.234375 84.582031 C 162.242188 84.800781 161.804688 84.414062 161.746094 84.085938 C 161.691406 83.753906 161.832031 82.546875 161.992188 81.898438 C 162.042969 81.6875 162.117188 81.558594 162.191406 81.472656 C 161.386719 81.617188 160.378906 81.671875 159.671875 81.671875 C 159.644531 81.671875 159.617188 81.671875 159.589844 81.671875 C 159.761719 81.789062 159.949219 81.984375 160.066406 82.335938 C 160.347656 83.175781 160.390625 83.808594 160.445312 84.304688 C 160.5 84.800781 159.835938 84.96875 159.171875 85.023438 C 158.507812 85.078125 157.734375 84.859375 157.625 84.582031 C 157.515625 84.304688 157.699219 83.15625 157.8125 82.558594 C 157.878906 82.195312 158.25 81.882812 158.535156 81.6875 C 157.789062 81.707031 156.992188 81.734375 156.179688 81.746094 C 156.398438 81.976562 156.609375 82.261719 156.660156 82.539062 C 156.773438 83.136719 157.019531 84.03125 156.964844 84.414062 C 156.90625 84.800781 156.742188 84.914062 155.691406 84.96875 C 154.640625 85.023438 154.289062 84.859375 154.175781 84.636719 C 154.066406 84.417969 154.257812 83.09375 154.390625 82.546875 C 154.460938 82.253906 154.679688 81.964844 154.878906 81.75 C 154.226562 81.742188 153.570312 81.714844 152.9375 81.664062 C 153.09375 82.097656 153.804688 82.835938 153.617188 84.027344 C 153.511719 84.691406 153.199219 84.964844 151.769531 84.96875 C 150.941406 84.96875 150.558594 84.414062 150.554688 84.03125 C 150.550781 82.972656 150.996094 82.234375 151.234375 81.476562 C 150.4375 81.386719 149.957031 81.320312 149.5625 81.15625 C 149.617188 81.515625 149.832031 82.457031 149.945312 83.421875 C 150.019531 84.027344 149.726562 84.359375 149.007812 84.359375 C 148.289062 84.359375 147.847656 83.976562 147.847656 83.640625 C 147.847656 82.757812 149.144531 81.117188 149.25 81.046875 C 149.261719 81.039062 149.273438 81.027344 149.289062 81.019531 C 149.210938 80.972656 149.136719 80.921875 149.0625 80.863281 C 148.398438 80.347656 147.589844 79.613281 147.160156 77.746094 C 146.726562 75.878906 146.882812 74.738281 145.441406 73.875 C 144.003906 73.011719 141.414062 75.078125 140.121094 74.941406 C 138.679688 74.789062 136.855469 71.90625 136.738281 70.546875 C 136.601562 68.960938 138.152344 69.699219 139.03125 67.6875 C 139.59375 66.410156 139.035156 64.808594 139.035156 61.21875 C 139.035156 57.625 140.273438 55.792969 141.050781 54.03125 C 141.621094 52.746094 140.832031 51.792969 141.835938 48.441406 C 142.691406 45.574219 143.460938 44.511719 143.460938 44.511719 C 143.460938 44.511719 142.082031 45.644531 141.273438 48.316406 C 140.554688 50.683594 140.777344 51.875 140.199219 53.742188 C 139.625 55.613281 138.753906 56.84375 138.324219 59.71875 C 137.890625 62.589844 138.617188 66.097656 137.890625 67.257812 C 137.40625 68.039062 135.792969 67.195312 135.582031 64.308594 C 135.402344 61.835938 135.078125 56.941406 135.511719 54.066406 C 135.941406 51.191406 136.195312 52.261719 137.71875 46.976562 C 139.507812 40.746094 147.324219 36.953125 156.652344 36.828125 C 164.804688 36.714844 167.78125 39.355469 170.445312 41.871094 C 173.222656 44.492188 175.160156 48.160156 175.746094 50.515625 C 176.335938 52.871094 176.851562 53.851562 177.222656 55.839844 C 177.589844 57.828125 177.390625 60.714844 177.03125 62.148438 C 176.632812 63.75 175.847656 66.542969 174.792969 66.832031 Z M 152.433594 60.503906 C 151.382812 58.847656 148.5625 58.558594 146.410156 58.460938 C 144.035156 58.347656 142.734375 59.082031 142.488281 60.890625 C 142.289062 62.347656 142.542969 64.535156 143.042969 66.136719 C 143.472656 67.527344 145.195312 69.394531 146.6875 69.175781 C 147.886719 68.996094 150.441406 67.082031 151.9375 65.363281 C 152.828125 64.335938 152.9375 61.300781 152.433594 60.503906 Z M 155.746094 64.976562 C 155.195312 65.015625 154.367188 66.855469 153.980469 69.171875 C 153.726562 70.703125 152.710938 72.835938 152.929688 74.144531 C 153.078125 75.023438 153.890625 75.148438 154.367188 74.199219 C 154.753906 73.425781 154.972656 72.707031 155.527344 72.707031 C 156.078125 72.707031 157.296875 75.945312 158.011719 75.855469 C 158.835938 75.753906 159.851562 74.476562 159.726562 72.875 C 159.613281 71.492188 159.0625 70.113281 158.234375 68.675781 C 157.40625 67.242188 156.296875 64.9375 155.746094 64.976562 Z M 169.171875 60.503906 C 168.34375 59.398438 166.90625 58.460938 164.089844 58.625 C 161.757812 58.761719 159.4375 59.703125 159.226562 61.277344 C 159.007812 62.933594 159.476562 63.796875 160.390625 64.921875 C 161.328125 66.082031 163.980469 68.34375 165.691406 68.457031 C 167.40625 68.566406 168.894531 68.179688 169.117188 66.46875 C 169.335938 64.753906 170 61.609375 169.171875 60.503906 Z M 165.359375 87.398438 C 166.6875 86.074219 166.464844 83.808594 167.019531 80.9375 C 167.570312 78.066406 168.5625 77.183594 169.226562 76.1875 C 169.890625 75.195312 171.472656 75.328125 171.65625 75.746094 C 171.878906 76.242188 171.203125 79.597656 170.550781 81.765625 C 169.558594 85.078125 169.503906 86.402344 169.449219 88.117188 C 169.402344 89.578125 167.074219 90.710938 165.859375 91.871094 C 164.640625 93.03125 163.539062 95.183594 162.046875 95.625 C 160.554688 96.070312 158.453125 95.296875 156.1875 95.351562 C 153.925781 95.40625 151.660156 95.957031 150.445312 95.515625 C 149.230469 95.074219 147.847656 93.03125 146.300781 91.652344 C 144.753906 90.269531 142.929688 89.441406 142.378906 88.117188 C 141.828125 86.789062 142.378906 85.1875 142.269531 83.144531 C 142.15625 81.101562 141.605469 79.832031 141.054688 78.617188 C 140.5 77.402344 140.867188 76.527344 141.769531 76.1875 C 143.097656 75.691406 144.035156 76.796875 144.699219 78.894531 C 145.390625 81.082031 146.003906 82.371094 146.136719 84.195312 C 146.300781 86.515625 146.632812 86.957031 147.40625 87.785156 C 147.847656 88.257812 148.660156 88.539062 149.511719 88.773438 C 149.355469 88.359375 149.214844 87.820312 149.285156 86.84375 C 149.320312 86.347656 149.726562 86.183594 150.609375 86.128906 C 151.496094 86.070312 152.078125 86.292969 152.101562 86.734375 C 152.175781 88.191406 151.820312 88.816406 151.566406 89.304688 C 152.042969 89.378906 152.742188 89.421875 153.550781 89.445312 C 153.25 88.84375 152.933594 88.152344 152.929688 87.011719 C 152.929688 86.355469 153.429688 86.457031 154.257812 86.402344 C 155.085938 86.347656 155.9375 86.339844 155.96875 86.902344 C 156.03125 88.035156 155.644531 88.773438 155.289062 89.46875 C 155.886719 89.46875 156.492188 89.464844 157.070312 89.457031 C 156.832031 88.707031 156.617188 87.742188 156.742188 86.902344 C 156.792969 86.566406 157.515625 86.457031 158.179688 86.402344 C 158.839844 86.347656 159.648438 86.675781 159.671875 87.066406 C 159.722656 87.925781 159.457031 88.761719 159.160156 89.414062 C 159.558594 89.402344 159.902344 89.394531 160.167969 89.386719 C 160.417969 89.378906 160.667969 89.359375 160.917969 89.332031 C 160.632812 88.796875 160.355469 88.117188 160.390625 87.5625 C 160.414062 87.117188 161.382812 86.183594 162.15625 86.238281 C 162.773438 86.28125 163.433594 86.414062 163.464844 86.746094 C 163.539062 87.445312 163.320312 88.203125 163.050781 88.835938 C 163.917969 88.515625 164.714844 88.042969 165.359375 87.398438 Z M 182.863281 110.425781 C 182.863281 110.425781 182.949219 111.570312 180.367188 112.527344 C 178.851562 113.085938 178.5625 113.382812 170.472656 110.480469 C 168.039062 109.609375 154.765625 105.8125 143.992188 99.492188 C 128.367188 90.324219 123.914062 84.921875 123.648438 85.132812 C 123.386719 85.347656 126.851562 91.152344 144.980469 100.871094 C 159.324219 108.566406 164.332031 109.433594 170.253906 111.53125 C 177.515625 114.105469 178.257812 114.160156 179.246094 115.34375 C 180.324219 116.632812 179.90625 119.429688 179.90625 119.429688 C 179.90625 119.429688 166.738281 115.6875 156.875 111.53125 C 145.859375 106.886719 135.65625 101.8125 125.84375 94.46875 C 116.027344 87.121094 106.015625 78.050781 99.523438 67.132812 C 93.714844 57.355469 94.378906 54.207031 94.316406 52.660156 C 94.164062 49.011719 95.273438 50.808594 95.960938 52.109375 C 96.398438 52.9375 99.257812 57.144531 106.214844 65.308594 C 113.832031 74.25 123.429688 82.207031 133.628906 89 C 142.992188 95.234375 153.191406 99.773438 163.027344 103.773438 C 173.914062 108.203125 182.867188 110.425781 182.867188 110.425781 Z M 107.355469 113.464844 C 109.675781 113.464844 111.109375 115.285156 111.109375 117.496094 C 111.109375 121.199219 107.8125 121 107.742188 121.636719 C 107.671875 122.273438 108.703125 122.722656 110.335938 122.464844 C 111.445312 122.292969 112.457031 120.589844 112.878906 121.085938 C 113.304688 121.578125 110.5625 124.949219 107.960938 124.949219 C 105.144531 124.949219 102.4375 122.523438 102.4375 119.042969 C 102.4375 115.066406 104.59375 113.464844 107.355469 113.464844 Z M 113.320312 113.410156 C 115.242188 113.410156 115.523438 114.078125 116.082031 115.894531 C 116.605469 117.589844 117.765625 118.003906 118.015625 117.992188 C 118.269531 117.980469 117.3125 117.242188 116.800781 115.839844 C 116.359375 114.625 115.714844 113.1875 118.183594 113.1875 C 120.558594 113.1875 120.550781 114.203125 120.890625 115.121094 C 121.441406 116.613281 122.929688 117.730469 123.152344 117.714844 C 123.378906 117.703125 121.996094 116.28125 121.664062 115.007812 C 121.40625 114.035156 121.4375 113.242188 122.824219 113.242188 C 123.984375 113.242188 124.699219 114.570312 125.695312 116.335938 C 126.5625 117.878906 127.449219 121.371094 125.75 121.527344 C 123.242188 121.757812 115.761719 121.976562 114.757812 121.363281 C 112.980469 120.269531 112.328125 118.875 111.828125 116.832031 C 111.226562 114.347656 111.292969 113.410156 113.320312 113.410156 Z M 121.882812 109.378906 C 121.609375 109.710938 121.550781 111.53125 119.398438 111.53125 C 117.242188 111.53125 115.695312 109.984375 115.695312 107.222656 C 115.695312 104.464844 117.628906 103.027344 120.226562 103.027344 C 122.824219 103.027344 124.921875 104.1875 126.964844 106.558594 C 128.992188 108.914062 129.703125 111.769531 130.722656 112.636719 C 132.195312 113.886719 134.207031 113.5625 134.347656 113.847656 C 134.488281 114.128906 132.492188 115.066406 132.523438 117.738281 C 132.546875 120.058594 132.710938 122.574219 133.429688 123.792969 C 134.148438 125.007812 134.976562 125.890625 135.253906 125.835938 C 135.527344 125.78125 135.582031 123.902344 137.351562 123.902344 C 139.285156 123.902344 140.28125 125.171875 140.28125 127.824219 C 140.28125 130.472656 138.179688 131.191406 135.472656 131.191406 C 132.765625 131.191406 130.445312 129.535156 129.5625 126.554688 C 128.679688 123.570312 127.851562 119.539062 126.746094 116.613281 C 125.640625 113.6875 123.707031 110.425781 123.15625 109.875 C 122.601562 109.324219 122.160156 109.046875 121.882812 109.378906 Z M 134.171875 112.597656 C 131.40625 112.425781 131.15625 110.425781 131.15625 110.425781 C 131.15625 110.425781 136.496094 108.851562 143.921875 106.292969 C 145.746094 107.328125 146.710938 107.84375 148.679688 108.675781 C 145.949219 109.597656 144.25 110.214844 143.429688 110.480469 C 137.039062 112.550781 135.855469 112.699219 134.171875 112.597656 Z M 155.976562 111.9375 C 145.957031 116.035156 133.925781 119.429688 133.925781 119.429688 C 133.925781 119.429688 133.503906 116.632812 134.589844 115.34375 C 135.75 113.960938 137.683594 113.628906 143.648438 111.53125 C 145.871094 110.75 147.703125 110.136719 150.203125 109.28125 C 152.953125 110.671875 154.265625 111.226562 155.976562 111.9375 Z M 176.503906 123.902344 C 178.261719 123.902344 178.3125 125.777344 178.589844 125.835938 C 178.863281 125.890625 179.6875 125.007812 180.398438 123.792969 C 181.109375 122.574219 181.496094 119.808594 181.386719 117.492188 C 181.277344 115.171875 179.871094 114.535156 179.976562 114.113281 C 180.082031 113.6875 181.75 113.441406 183.03125 112.371094 C 184.398438 111.230469 184.800781 108.914062 186.8125 106.558594 C 188.84375 104.1875 190.925781 103.027344 193.503906 103.027344 C 196.078125 103.027344 198 104.464844 198 107.222656 C 198 109.984375 196.464844 111.53125 194.324219 111.53125 C 192.1875 111.53125 192.132812 109.710938 191.855469 109.378906 C 191.582031 109.046875 191.144531 109.324219 190.597656 109.875 C 190.046875 110.425781 188.128906 113.6875 187.03125 116.613281 C 185.9375 119.539062 185.113281 123.570312 184.234375 126.554688 C 183.359375 129.535156 181.054688 131.191406 178.367188 131.191406 C 175.683594 131.191406 173.597656 130.472656 173.597656 127.824219 C 173.597656 125.171875 174.585938 123.902344 176.503906 123.902344 Z M 190.925781 113.242188 C 192.300781 113.242188 192.328125 114.035156 192.078125 115.007812 C 191.75 116.28125 190.597656 117.714844 190.597656 117.714844 C 190.597656 117.714844 192.296875 116.613281 192.84375 115.121094 C 193.183594 114.203125 193.171875 113.1875 195.53125 113.1875 C 197.980469 113.1875 197.339844 114.625 196.902344 115.839844 C 196.394531 117.242188 195.695312 117.992188 195.695312 117.992188 C 195.695312 117.992188 197.09375 117.589844 197.613281 115.894531 C 198.167969 114.078125 198.449219 113.410156 200.355469 113.410156 C 202.371094 113.410156 202.4375 114.347656 201.835938 116.832031 C 201.34375 118.875 200.691406 120.269531 198.929688 121.363281 C 197.933594 121.976562 190.511719 121.757812 188.019531 121.527344 C 186.335938 121.371094 187.214844 117.878906 188.074219 116.335938 C 189.0625 114.570312 189.773438 113.242188 190.925781 113.242188 Z M 203.316406 122.464844 C 204.953125 122.601562 205.949219 122.113281 205.894531 121.636719 C 205.839844 121.160156 202.546875 121.199219 202.546875 117.496094 C 202.546875 115.285156 203.972656 113.464844 206.277344 113.464844 C 209.019531 113.464844 211.15625 115.066406 211.15625 119.042969 C 211.15625 122.523438 208.46875 125.023438 205.675781 124.949219 C 201.5 124.847656 200.265625 121.507812 200.792969 121.085938 C 201.324219 120.660156 201.84375 122.34375 203.316406 122.464844 Z M 203.316406 122.464844 " fill-opacity="1" fill-rule="nonzero"/></g></svg>